<svg id="visual" viewBox="0 0 1920 1080" width="1920" height="1080" xmlns="http://www.w3.org/2000/svg" xmlns:xlink="http://www.w3.org/1999/xlink" version="1.1"><path d="M0 44L80 42.2C160 40.3 320 36.7 480 33.2C640 29.7 800 26.3 960 24.7C1120 23 1280 23 1440 23C1600 23 1760 23 1840 23L1920 23L1920 0L1840 0C1760 0 1600 0 1440 0C1280 0 1120 0 960 0C800 0 640 0 480 0C320 0 160 0 80 0L0 0Z" fill="#424141"></path><path d="M0 239L80 242.5C160 246 320 253 480 260.2C640 267.3 800 274.7 960 278.3C1120 282 1280 282 1440 274.8C1600 267.7 1760 253.3 1840 246.2L1920 239L1920 21L1840 21C1760 21 1600 21 1440 21C1280 21 1120 21 960 22.7C800 24.3 640 27.7 480 31.2C320 34.7 160 38.3 80 40.2L0 42Z" fill="#3e3d3d"></path><path d="M0 303L80 306.7C160 310.3 320 317.7 480 323.2C640 328.7 800 332.3 960 334.2C1120 336 1280 336 1440 332.3C1600 328.7 1760 321.3 1840 317.7L1920 314L1920 237L1840 244.2C1760 251.3 1600 265.7 1440 272.8C1280 280 1120 280 960 276.3C800 272.7 640 265.3 480 258.2C320 251 160 244 80 240.5L0 237Z" fill="#3b3939"></path><path d="M0 401L80 401C160 401 320 401 480 410C640 419 800 437 960 446C1120 455 1280 455 1440 447.7C1600 440.3 1760 425.7 1840 418.3L1920 411L1920 312L1840 315.7C1760 319.3 1600 326.7 1440 330.3C1280 334 1120 334 960 332.2C800 330.3 640 326.7 480 321.2C320 315.7 160 308.3 80 304.7L0 301Z" fill="#373535"></path><path d="M0 627L80 628.8C160 630.7 320 634.3 480 629C640 623.7 800 609.3 960 596.8C1120 584.3 1280 573.7 1440 577.3C1600 581 1760 599 1840 608L1920 617L1920 409L1840 416.3C1760 423.7 1600 438.3 1440 445.7C1280 453 1120 453 960 444C800 435 640 417 480 408C320 399 160 399 80 399L0 399Z" fill="#333232"></path><path d="M0 714L80 714C160 714 320 714 480 708.5C640 703 800 692 960 686.5C1120 681 1280 681 1440 679.3C1600 677.7 1760 674.3 1840 672.7L1920 671L1920 615L1840 606C1760 597 1600 579 1440 575.3C1280 571.7 1120 582.3 960 594.8C800 607.3 640 621.7 480 627C320 632.3 160 628.7 80 626.8L0 625Z" fill="#302e2e"></path><path d="M0 757L80 757C160 757 320 757 480 755.2C640 753.3 800 749.7 960 747.8C1120 746 1280 746 1440 744.2C1600 742.3 1760 738.7 1840 736.8L1920 735L1920 669L1840 670.7C1760 672.3 1600 675.7 1440 677.3C1280 679 1120 679 960 684.5C800 690 640 701 480 706.5C320 712 160 712 80 712L0 712Z" fill="#2c2a2a"></path><path d="M0 800L80 801.8C160 803.7 320 807.3 480 805.5C640 803.7 800 796.3 960 791C1120 785.7 1280 782.3 1440 784.2C1600 786 1760 793 1840 796.5L1920 800L1920 733L1840 734.8C1760 736.7 1600 740.3 1440 742.2C1280 744 1120 744 960 745.8C800 747.7 640 751.3 480 753.2C320 755 160 755 80 755L0 755Z" fill="#292727"></path><path d="M0 941L80 939.2C160 937.3 320 933.7 480 933.7C640 933.7 800 937.3 960 937.3C1120 937.3 1280 933.7 1440 933.7C1600 933.7 1760 937.3 1840 939.2L1920 941L1920 798L1840 794.5C1760 791 1600 784 1440 782.2C1280 780.3 1120 783.7 960 789C800 794.3 640 801.7 480 803.5C320 805.3 160 801.7 80 799.8L0 798Z" fill="#252323"></path><path d="M0 1016L80 1014.2C160 1012.3 320 1008.7 480 1005.2C640 1001.7 800 998.3 960 994.8C1120 991.3 1280 987.7 1440 984C1600 980.3 1760 976.7 1840 974.8L1920 973L1920 939L1840 937.2C1760 935.3 1600 931.7 1440 931.7C1280 931.7 1120 935.3 960 935.3C800 935.3 640 931.7 480 931.7C320 931.7 160 935.3 80 937.2L0 939Z" fill="#222020"></path><path d="M0 1059L80 1059C160 1059 320 1059 480 1057.3C640 1055.7 800 1052.3 960 1047C1120 1041.7 1280 1034.3 1440 1034.3C1600 1034.3 1760 1041.7 1840 1045.3L1920 1049L1920 971L1840 972.8C1760 974.7 1600 978.3 1440 982C1280 985.7 1120 989.3 960 992.8C800 996.3 640 999.7 480 1003.2C320 1006.7 160 1010.3 80 1012.2L0 1014Z" fill="#1e1c1c"></path><path d="M0 1081L80 1081C160 1081 320 1081 480 1081C640 1081 800 1081 960 1081C1120 1081 1280 1081 1440 1081C1600 1081 1760 1081 1840 1081L1920 1081L1920 1047L1840 1043.3C1760 1039.7 1600 1032.3 1440 1032.3C1280 1032.3 1120 1039.7 960 1045C800 1050.3 640 1053.7 480 1055.3C320 1057 160 1057 80 1057L0 1057Z" fill="#1b1919"></path></svg>