<svg id="visual" viewBox="0 0 1920 1080" width="1920" height="1080" xmlns="http://www.w3.org/2000/svg" xmlns:xlink="http://www.w3.org/1999/xlink" version="1.1"><path d="M0 109L80 118C160 127 320 145 480 155.8C640 166.7 800 170.3 960 163.2C1120 156 1280 138 1440 134.3C1600 130.7 1760 141.3 1840 146.7L1920 152L1920 0L1840 0C1760 0 1600 0 1440 0C1280 0 1120 0 960 0C800 0 640 0 480 0C320 0 160 0 80 0L0 0Z" fill="#001122"></path><path d="M0 174L80 179.3C160 184.7 320 195.3 480 206.2C640 217 800 228 960 219C1120 210 1280 181 1440 172C1600 163 1760 174 1840 179.5L1920 185L1920 150L1840 144.7C1760 139.3 1600 128.7 1440 132.3C1280 136 1120 154 960 161.2C800 168.3 640 164.7 480 153.8C320 143 160 125 80 116L0 107Z" fill="#081625"></path><path d="M0 271L80 274.7C160 278.3 320 285.7 480 296.5C640 307.3 800 321.7 960 316.2C1120 310.7 1280 285.3 1440 272.7C1600 260 1760 260 1840 260L1920 260L1920 183L1840 177.5C1760 172 1600 161 1440 170C1280 179 1120 208 960 217C800 226 640 215 480 204.2C320 193.3 160 182.7 80 177.3L0 172Z" fill="#0e1a27"></path><path d="M0 325L80 326.8C160 328.7 320 332.3 480 341.3C640 350.3 800 364.7 960 355.7C1120 346.7 1280 314.3 1440 301.7C1600 289 1760 296 1840 299.5L1920 303L1920 258L1840 258C1760 258 1600 258 1440 270.7C1280 283.3 1120 308.7 960 314.2C800 319.7 640 305.3 480 294.5C320 283.7 160 276.3 80 272.7L0 269Z" fill="#141e2a"></path><path d="M0 368L80 373.5C160 379 320 390 480 397.2C640 404.3 800 407.7 960 402.2C1120 396.7 1280 382.3 1440 373.3C1600 364.3 1760 360.7 1840 358.8L1920 357L1920 301L1840 297.5C1760 294 1600 287 1440 299.7C1280 312.3 1120 344.7 960 353.7C800 362.7 640 348.3 480 339.3C320 330.3 160 326.7 80 324.8L0 323Z" fill="#1a222d"></path><path d="M0 487L80 492.3C160 497.7 320 508.3 480 508.3C640 508.3 800 497.7 960 483.3C1120 469 1280 451 1440 452.8C1600 454.7 1760 476.3 1840 487.2L1920 498L1920 355L1840 356.8C1760 358.7 1600 362.3 1440 371.3C1280 380.3 1120 394.7 960 400.2C800 405.7 640 402.3 480 395.2C320 388 160 377 80 371.5L0 366Z" fill="#1f2630"></path><path d="M0 725L80 725C160 725 320 725 480 721.3C640 717.7 800 710.3 960 686.8C1120 663.3 1280 623.7 1440 629C1600 634.3 1760 684.7 1840 709.8L1920 735L1920 496L1840 485.2C1760 474.3 1600 452.7 1440 450.8C1280 449 1120 467 960 481.3C800 495.7 640 506.3 480 506.3C320 506.3 160 495.7 80 490.3L0 485Z" fill="#252a32"></path><path d="M0 789L80 787.3C160 785.7 320 782.3 480 773.3C640 764.3 800 749.7 960 728C1120 706.3 1280 677.7 1440 683.2C1600 688.7 1760 728.3 1840 748.2L1920 768L1920 733L1840 707.8C1760 682.7 1600 632.3 1440 627C1280 621.7 1120 661.3 960 684.8C800 708.3 640 715.7 480 719.3C320 723 160 723 80 723L0 723Z" fill="#2a2e35"></path><path d="M0 941L80 939.2C160 937.3 320 933.7 480 931.8C640 930 800 930 960 924.5C1120 919 1280 908 1440 911.5C1600 915 1760 933 1840 942L1920 951L1920 766L1840 746.2C1760 726.3 1600 686.7 1440 681.2C1280 675.7 1120 704.3 960 726C800 747.7 640 762.3 480 771.3C320 780.3 160 783.7 80 785.3L0 787Z" fill="#303338"></path><path d="M0 995L80 991.3C160 987.7 320 980.3 480 974.8C640 969.3 800 965.7 960 958.5C1120 951.3 1280 940.7 1440 942.5C1600 944.3 1760 958.7 1840 965.8L1920 973L1920 949L1840 940C1760 931 1600 913 1440 909.5C1280 906 1120 917 960 922.5C800 928 640 928 480 929.8C320 931.7 160 935.3 80 937.2L0 939Z" fill="#35373b"></path><path d="M0 1038L80 1034.3C160 1030.7 320 1023.3 480 1023.3C640 1023.3 800 1030.7 960 1028.8C1120 1027 1280 1016 1440 1012.3C1600 1008.7 1760 1012.3 1840 1014.2L1920 1016L1920 971L1840 963.8C1760 956.7 1600 942.3 1440 940.5C1280 938.7 1120 949.3 960 956.5C800 963.7 640 967.3 480 972.8C320 978.3 160 985.7 80 989.3L0 993Z" fill="#3b3c3d"></path><path d="M0 1081L80 1081C160 1081 320 1081 480 1081C640 1081 800 1081 960 1081C1120 1081 1280 1081 1440 1081C1600 1081 1760 1081 1840 1081L1920 1081L1920 1014L1840 1012.2C1760 1010.3 1600 1006.7 1440 1010.3C1280 1014 1120 1025 960 1026.8C800 1028.7 640 1021.3 480 1021.3C320 1021.3 160 1028.7 80 1032.3L0 1036Z" fill="#404040"></path></svg>